<svg width="32" height="32" viewBox="0 0 32 32" fill="none" xmlns="http://www.w3.org/2000/svg">
<path fill-rule="evenodd" clip-rule="evenodd" d="M11.5 13H8.5C7.6717 12.9997 7.0003 12.3283 7 11.5V8.5C7.0003 7.6717 7.6717 7.0003 8.5 7H11.5C12.3283 7.0003 12.9997 7.6717 13 8.5V11.5C12.9997 12.3283 12.3283 12.9997 11.5 13Z" stroke="#3B4750" stroke-width="1.5" stroke-linecap="round" stroke-linejoin="round"/>
<path fill-rule="evenodd" clip-rule="evenodd" d="M23.5 13H17.5C16.6717 12.9997 16.0003 12.3283 16 11.5V8.5C16.0003 7.6717 16.6717 7.0003 17.5 7H23.5C24.3283 7.0003 24.9997 7.6717 25 8.5V11.5C24.9997 12.3283 24.3283 12.9997 23.5 13Z" stroke="#3B4750" stroke-width="1.5" stroke-linecap="round" stroke-linejoin="round"/>
<path fill-rule="evenodd" clip-rule="evenodd" d="M23.5 22H20.5C19.6717 21.9997 19.0003 21.3283 19 20.5V17.5C19.0003 16.6717 19.6717 16.0003 20.5 16H23.5C24.3283 16.0003 24.9997 16.6717 25 17.5V20.5C24.9997 21.3283 24.3283 21.9997 23.5 22Z" stroke="#3B4750" stroke-width="1.5" stroke-linecap="round" stroke-linejoin="round"/>
<path fill-rule="evenodd" clip-rule="evenodd" d="M14 25H9C8.46952 25.0001 7.96073 24.7895 7.58563 24.4144C7.21052 24.0393 6.99985 23.5305 7 23V18.429C6.99985 17.8985 7.21052 17.3897 7.58563 17.0146C7.96073 16.6395 8.46952 16.4289 9 16.429H14C14.5305 16.4289 15.0393 16.6395 15.4144 17.0146C15.7895 17.3897 16.0001 17.8985 16 18.429V23C16.0001 23.5305 15.7895 24.0393 15.4144 24.4144C15.0393 24.7895 14.5305 25.0001 14 25Z" stroke="#3B4750" stroke-width="1.5" stroke-linecap="round" stroke-linejoin="round"/>
<path d="M12.9281 19.9999L11.1431 21.7859L10.0718 20.7145" stroke="#3B4750" stroke-width="1.5" stroke-linecap="round" stroke-linejoin="round"/>
</svg>
