<?xml version="1.0" encoding="UTF-8"?>
<svg id="Layer_1" data-name="Layer 1" xmlns="http://www.w3.org/2000/svg" version="1.1" viewBox="0 0 20 20">
  <defs>
    <style>
      .cls-1 {
        fill: none;
        stroke: #3b4750;
        stroke-linecap: round;
        stroke-linejoin: round;
        stroke-width: 1.5px;
      }
    </style>
  </defs>
  <path class="cls-1" d="M5.5,7h-3c-.8,0-1.5-.7-1.5-1.5v-3c0-.8.7-1.5,1.5-1.5h3c.8,0,1.5.7,1.5,1.5v3c0,.8-.7,1.5-1.5,1.5Z"/>
  <path class="cls-1" d="M17.5,7h-6c-.8,0-1.5-.7-1.5-1.5v-3c0-.8.7-1.5,1.5-1.5h6c.8,0,1.5.7,1.5,1.5v3c0,.8-.7,1.5-1.5,1.5Z"/>
  <path class="cls-1" d="M17.5,16h-3c-.8,0-1.5-.7-1.5-1.5v-3c0-.8.7-1.5,1.5-1.5h3c.8,0,1.5.7,1.5,1.5v3c0,.8-.7,1.5-1.5,1.5Z"/>
  <path class="cls-1" d="M8,19H3c-.5,0-1-.2-1.4-.6-.4-.4-.6-.9-.6-1.4v-4.6c0-.5.2-1,.6-1.4.4-.4.9-.6,1.4-.6h5c.5,0,1,.2,1.4.6.4.4.6.9.6,1.4v4.6c0,.5-.2,1-.6,1.4s-.9.6-1.4.6Z"/>
  <path class="cls-1" d="M6.9,14l-1.8,1.8-1.1-1.1"/>
</svg>