<svg viewBox="0 0 24 23" fill="none" xmlns="http://www.w3.org/2000/svg">
  <g id="RUS_Navigator_Logos_web_3 2">
    <path d="M11.1498 2.53201C16.4179 2.53201 20.7123 6.77868 20.7123 11.9925C20.7123 17.2064 16.4214 21.4531 11.1498 21.4531C5.87828 21.4531 1.58736 17.2064 1.58736 11.9925C1.58736 6.77868 5.88179 2.53201 11.1498 2.53201ZM11.1498 1.31348C5.19061 1.31348 0.359375 6.09574 0.359375 11.9925C0.359375 17.8893 5.19236 22.6716 11.1498 22.6716C17.1073 22.6716 21.9403 17.8893 21.9403 11.9925C21.9403 6.09574 17.1091 1.31348 11.1498 1.31348Z" fill="currentColor" id="Vector" />
    <path d="M11.1495 12.804C11.6021 12.804 11.967 12.4435 11.967 11.9928C11.967 11.5422 11.6021 11.1816 11.1495 11.1816C10.6969 11.1816 10.332 11.5422 10.332 11.9928C10.332 12.4435 10.6969 12.804 11.1495 12.804Z" fill="currentColor" id="Vector_2" />
    <path d="M11.1494 4.24121C15.4736 4.24133 18.9824 7.71364 18.9824 11.9932C18.9822 16.2725 15.4769 19.744 11.1494 19.7441C6.82532 19.7441 3.31667 16.2777 3.31641 11.9932C3.31641 7.70836 6.82516 4.24121 11.1494 4.24121ZM15.251 15.2432C14.7984 15.2432 14.4336 15.6041 14.4336 16.0547C14.4338 16.5052 14.7985 16.8652 15.251 16.8652C15.7035 16.8652 16.0682 16.5052 16.0684 16.0547C16.0684 15.604 15.7036 15.2432 15.251 15.2432ZM15.4805 7.71582C15.3577 7.59475 15.1686 7.55346 15.0039 7.61914L13.9229 8.05762C12.3739 8.68333 10.9107 9.27638 9.45996 9.88477C9.18117 9.99924 9.01604 10.3148 8.94238 10.4863C8.35125 11.8833 7.76743 13.2874 7.14648 14.8057L6.73535 15.7969C6.67051 15.9598 6.70245 16.1455 6.83398 16.2686C6.91643 16.35 7.03075 16.3984 7.14648 16.3984C7.20429 16.3984 7.26247 16.3895 7.31152 16.3652L8.01855 16.0811C9.68312 15.4069 11.2441 14.7741 12.7842 14.1328C13.0051 14.0427 13.228 13.8159 13.3193 13.6045C13.9684 12.0618 14.6109 10.5185 15.2881 8.87012L15.5664 8.1875C15.6331 8.02459 15.6032 7.83955 15.4805 7.72168V7.71582ZM7.04395 7.12305C6.59139 7.1231 6.22656 7.48394 6.22656 7.93457C6.22674 8.38505 6.5915 8.74506 7.04395 8.74512C7.49644 8.74512 7.86115 8.38509 7.86133 7.93457C7.86133 7.4839 7.49654 7.12305 7.04395 7.12305Z" fill="currentColor" id="Subtract" />
  </g>
</svg>
