<svg viewBox="0 0 20 20" fill="none" xmlns="http://www.w3.org/2000/svg">
  <path
    d="M15 14.1667H16.6667C17.1267 14.1667 17.5 14.54 17.5 15V16.6667C17.5 17.1267 17.1267 17.5 16.6667 17.5H15C14.54 17.5 14.1667 17.1267 14.1667 16.6667V15C14.1667 14.54 14.54 14.1667 15 14.1667Z"
    stroke="currentColor"
    stroke-width="1.5"
    stroke-linecap="round"
    stroke-linejoin="round"
  />
  <path
    d="M3.33333 2.5H5C5.46 2.5 5.83333 2.87333 5.83333 3.33333V5C5.83333 5.46 5.46 5.83333 5 5.83333H3.33333C2.87333 5.83333 2.5 5.46 2.5 5V3.33333C2.5 2.87333 2.87333 2.5 3.33333 2.5Z"
    stroke="currentColor"
    stroke-width="1.5"
    stroke-linecap="round"
    stroke-linejoin="round"
  />
  <path
    d="M9.16667 8.33333H10.8333C11.2933 8.33333 11.6667 8.70667 11.6667 9.16667V10.8333C11.6667 11.2933 11.2933 11.6667 10.8333 11.6667H9.16667C8.70667 11.6667 8.33333 11.2933 8.33333 10.8333V9.16667C8.33333 8.70667 8.70667 8.33333 9.16667 8.33333Z"
    stroke="currentColor"
    stroke-width="1.5"
    stroke-linecap="round"
    stroke-linejoin="round"
  />
  <path
    d="M9.16667 4.16667H15.8333C16.7542 4.16667 17.5 4.9125 17.5 5.83333V8.33333C17.5 9.25417 16.7542 10 15.8333 10H14.1667"
    stroke="currentColor"
    stroke-width="1.5"
    stroke-linecap="round"
    stroke-linejoin="round"
  />
  <path
    d="M10.8333 15.8333H4.16667C3.24583 15.8333 2.5 15.0875 2.5 14.1667V11.6667C2.5 10.7458 3.24583 10 4.16667 10H5.83333"
    stroke="currentColor"
    stroke-width="1.5"
    stroke-linecap="round"
    stroke-linejoin="round"
  />
</svg>





