<svg viewBox="0 0 16 16" fill="none" xmlns="http://www.w3.org/2000/svg">
  <g clip-path="url(#clip0_sun)">
    <path
      clip-rule="evenodd"
      d="M8 5C6.34315 5 5 6.34315 5 8C5 9.65685 6.34315 11 8 11C9.65685 11 11 9.65685 11 8C11 6.34315 9.65685 5 8 5ZM3 8C3 5.23858 5.23858 3 8 3C10.7614 3 13 5.23858 13 8C13 10.7614 10.7614 13 8 13C5.23858 13 3 10.7614 3 8Z"
      fill="currentColor"
      fill-rule="evenodd"
    />
    <path
      d="M9 1C9 1.55228 8.55228 2 8 2C7.44772 2 7 1.55228 7 1C7 0.447715 7.44772 0 8 0C8.55228 0 9 0.447715 9 1Z"
      fill="currentColor"
    />
    <path
      d="M9 15C9 15.5523 8.55228 16 8 16C7.44772 16 7 15.5523 7 15C7 14.4477 7.44772 14 8 14C8.55228 14 9 14.4477 9 15Z"
      fill="currentColor"
    />
    <path
      d="M15 9C14.4477 9 14 8.55228 14 8C14 7.44772 14.4477 7 15 7C15.5523 7 16 7.44772 16 8C16 8.55228 15.5523 9 15 9Z"
      fill="currentColor"
    />
    <path
      d="M1 9C0.447715 9 -6.78525e-08 8.55228 -4.37114e-08 8C-1.95703e-08 7.44771 0.447715 7 1 7C1.55228 7 2 7.44771 2 8C2 8.55228 1.55228 9 1 9Z"
      fill="currentColor"
    />
  </g>
  <defs>
    <clipPath id="clip0_sun">
      <rect width="16" height="16" fill="white" />
    </clipPath>
  </defs>
</svg>





