<svg viewBox="0 0 20 20" fill="none" xmlns="http://www.w3.org/2000/svg">
  <g id="Group 6589">
    <path d="M0.75 3.71296V15.5648C0.75 16.3506 1.06217 17.1043 1.61783 17.6599C2.1735 18.2156 2.92714 18.5278 3.71296 18.5278H15.5648C16.3506 18.5278 17.1043 18.2156 17.6599 17.6599C18.2156 17.1043 18.5278 16.3506 18.5278 15.5648V3.71296C18.5278 2.92714 18.2156 2.1735 17.6599 1.61783C17.1043 1.06217 16.3506 0.75 15.5648 0.75H3.71296C2.92714 0.75 2.1735 1.06217 1.61783 1.61783C1.06217 2.1735 0.75 2.92714 0.75 3.71296Z" id="Vector" stroke="currentColor" stroke-linecap="round" stroke-linejoin="round" stroke-width="1.5" />
    <path d="M12.6033 18.5273V6.7347" id="Vector_2" stroke="currentColor" stroke-linecap="round" stroke-linejoin="round" stroke-width="1.5" />
    <path d="M18.5263 6.7347H8.64979C8.1259 6.7347 7.62348 6.94281 7.25303 7.31325C6.88259 7.6837 6.67448 8.18612 6.67448 8.71001V18.5273" id="Vector_3" stroke="currentColor" stroke-linecap="round" stroke-linejoin="round" stroke-width="1.5" />
    <path d="M18.5263 12.6608H6.67448" id="Vector_4" stroke="currentColor" stroke-linecap="round" stroke-linejoin="round" stroke-width="1.5" />
  </g>
</svg>
