<svg viewBox="0 0 18 20" fill="none" xmlns="http://www.w3.org/2000/svg">
  <g id="Group">
    <path d="M14.7509 4.8C15.8554 4.8 16.7509 3.89338 16.7509 2.775C16.7509 1.65662 15.8554 0.75 14.7509 0.75C13.6463 0.75 12.7509 1.65662 12.7509 2.775C12.7509 3.89338 13.6463 4.8 14.7509 4.8Z" id="Vector" stroke="currentColor" stroke-linecap="round" stroke-linejoin="round" stroke-width="1.5" />
    <path d="M14.7509 11.7748C15.8554 11.7748 16.7509 10.8682 16.7509 9.74983C16.7509 8.63145 15.8554 7.72483 14.7509 7.72483C13.6463 7.72483 12.7509 8.63145 12.7509 9.74983C12.7509 10.8682 13.6463 11.7748 14.7509 11.7748Z" id="Vector_2" stroke="currentColor" stroke-linecap="round" stroke-linejoin="round" stroke-width="1.5" />
    <path d="M2.75 11.775C3.85457 11.775 4.75 10.8684 4.75 9.75C4.75 8.63162 3.85457 7.725 2.75 7.725C1.64543 7.725 0.75 8.63162 0.75 9.75C0.75 10.8684 1.64543 11.775 2.75 11.775Z" id="Vector_3" stroke="currentColor" stroke-linecap="round" stroke-linejoin="round" stroke-width="1.5" />
    <path d="M14.7509 18.7497C15.8554 18.7497 16.7509 17.843 16.7509 16.7247C16.7509 15.6063 15.8554 14.6997 14.7509 14.6997C13.6463 14.6997 12.7509 15.6063 12.7509 16.7247C12.7509 17.843 13.6463 18.7497 14.7509 18.7497Z" id="Vector_4" stroke="currentColor" stroke-linecap="round" stroke-linejoin="round" stroke-width="1.5" />
    <path d="M12.7491 2.77474H10.5269C9.54469 2.77474 8.74913 3.58024 8.74913 4.57474V14.9247C8.74913 15.9192 9.54469 16.7247 10.5269 16.7247H12.7491" id="Vector_5" stroke="currentColor" stroke-linecap="round" stroke-linejoin="round" stroke-width="1.5" />
    <path d="M12.7517 9.74957H4.75174" id="Vector_6" stroke="currentColor" stroke-linecap="round" stroke-linejoin="round" stroke-width="1.5" />
  </g>
</svg>
